<svg preserveAspectRatio="none" width="100%" height="100%" overflow="visible" style="display: block;" viewBox="0 0 58 58" fill="none" xmlns="http://www.w3.org/2000/svg">
<g id="Mini campfire / quiet vector" opacity="0.76">
<path id="Vector" d="M29 51.6562C40.0112 51.6562 48.9375 44.3529 48.9375 35.3438C48.9375 26.3346 40.0112 19.0312 29 19.0312C17.9888 19.0312 9.0625 26.3346 9.0625 35.3438C9.0625 44.3529 17.9888 51.6562 29 51.6562Z" fill="var(--fill-0, #F59B45)" fill-opacity="0.18"/>
<path id="Vector_2" d="M29 7.25C35.3438 16.3125 43.5 20.8438 43.5 32.625C43.5 42.1406 37.1562 48.0312 29 48.0312C20.8438 48.0312 14.5 42.1406 14.5 32.625C14.5 26.2812 18.125 21.75 22.6562 16.3125C22.6562 22.6562 26.2812 25.375 29 27.1875C31.7188 23.5625 31.7188 16.3125 29 7.25Z" fill="var(--fill-0, #F59B45)"/>
<path id="Vector_3" d="M30.8125 19.9375C35.3438 26.2812 38.0625 29 38.0625 35.3438C38.0625 41.6875 33.9844 45.3125 29 45.3125C24.0156 45.3125 19.9375 41.6875 19.9375 35.3438C19.9375 31.2656 22.6562 28.0938 25.8281 24.4688C25.8281 29 28.0938 30.8125 29.9062 32.1719C31.7188 29.4531 32.625 24.9219 30.8125 19.9375Z" fill="var(--fill-0, #FFCE63)"/>
<path id="Vector_4" d="M29 30.8125C31.7188 34.8906 33.5312 36.7031 33.5312 39.875C33.5312 43.5 31.5375 45.7656 29 45.7656C26.4625 45.7656 24.4688 43.5 24.4688 39.875C24.4688 37.6094 26.2812 35.3438 28.0938 32.625C28.0938 35.3438 28.8187 36.7031 29.725 37.6094C30.8125 35.7969 30.8125 33.0781 29 30.8125Z" fill="var(--fill-0, #FFF4D6)"/>
<path id="Vector_5" d="M40.6694 37.1622L18.0197 43.6569C16.5763 44.0707 15.7418 45.5763 16.1556 47.0197C16.5695 48.463 18.0751 49.2976 19.5185 48.8837L42.1682 42.389C43.6115 41.9751 44.4461 40.4696 44.0322 39.0262C43.6184 37.5828 42.1128 36.7483 40.6694 37.1622Z" fill="var(--fill-0, #7B4A2A)"/>
<path id="Vector_6" d="M40.4599 44.4638L16.1937 37.0449C14.7578 36.6059 13.2379 37.414 12.7989 38.85C12.3599 40.2859 13.168 41.8058 14.6039 42.2448L38.8702 49.6637C40.3061 50.1027 41.826 49.2946 42.265 47.8587C42.704 46.4227 41.8959 44.9028 40.4599 44.4638Z" fill="var(--fill-0, #5B351F)"/>
<path id="Vector_7" d="M39.875 18.125C40.876 18.125 41.6875 17.3135 41.6875 16.3125C41.6875 15.3115 40.876 14.5 39.875 14.5C38.874 14.5 38.0625 15.3115 38.0625 16.3125C38.0625 17.3135 38.874 18.125 39.875 18.125Z" fill="var(--fill-0, #FFE2A3)" fill-opacity="0.85"/>
<path id="Vector_8" d="M18.125 22.2031C18.8758 22.2031 19.4844 21.5945 19.4844 20.8438C19.4844 20.093 18.8758 19.4844 18.125 19.4844C17.3742 19.4844 16.7656 20.093 16.7656 20.8438C16.7656 21.5945 17.3742 22.2031 18.125 22.2031Z" fill="var(--fill-0, #FFE2A3)" fill-opacity="0.7"/>
</g>
</svg>
