<svg preserveAspectRatio="none" width="100%" height="100%" overflow="visible" style="display: block;" viewBox="0 0 42 42" fill="none" xmlns="http://www.w3.org/2000/svg">
<g id="Mini campfire / quiet vector" opacity="0.76">
<path id="Vector" d="M21 37.4062C28.9736 37.4062 35.4375 32.1176 35.4375 25.5938C35.4375 19.0699 28.9736 13.7812 21 13.7812C13.0264 13.7812 6.5625 19.0699 6.5625 25.5938C6.5625 32.1176 13.0264 37.4062 21 37.4062Z" fill="var(--fill-0, #F59B45)" fill-opacity="0.18"/>
<path id="Vector_2" d="M21 5.25C25.5938 11.8125 31.5 15.0938 31.5 23.625C31.5 30.5156 26.9062 34.7812 21 34.7812C15.0938 34.7812 10.5 30.5156 10.5 23.625C10.5 19.0312 13.125 15.75 16.4062 11.8125C16.4062 16.4062 19.0312 18.375 21 19.6875C22.9688 17.0625 22.9688 11.8125 21 5.25Z" fill="var(--fill-0, #F59B45)"/>
<path id="Vector_3" d="M22.3125 14.4375C25.5938 19.0312 27.5625 21 27.5625 25.5938C27.5625 30.1875 24.6094 32.8125 21 32.8125C17.3906 32.8125 14.4375 30.1875 14.4375 25.5938C14.4375 22.6406 16.4062 20.3438 18.7031 17.7188C18.7031 21 20.3438 22.3125 21.6562 23.2969C22.9688 21.3281 23.625 18.0469 22.3125 14.4375Z" fill="var(--fill-0, #FFCE63)"/>
<path id="Vector_4" d="M21 22.3125C22.9688 25.2656 24.2812 26.5781 24.2812 28.875C24.2812 31.5 22.8375 33.1406 21 33.1406C19.1625 33.1406 17.7188 31.5 17.7188 28.875C17.7188 27.2344 19.0312 25.5938 20.3438 23.625C20.3438 25.5938 20.8687 26.5781 21.525 27.2344C22.3125 25.9219 22.3125 23.9531 21 22.3125Z" fill="var(--fill-0, #FFF4D6)"/>
<path id="Vector_5" d="M29.4503 26.9105L13.0487 31.6136C12.0035 31.9133 11.3992 33.0035 11.6989 34.0487C11.9986 35.0939 13.0889 35.6983 14.1341 35.3986L30.5356 30.6955C31.5808 30.3958 32.1851 29.3055 31.8854 28.2603C31.5857 27.2152 30.4955 26.6108 29.4503 26.9105Z" fill="var(--fill-0, #7B4A2A)"/>
<path id="Vector_6" d="M29.2986 32.1979L11.7265 26.8256C10.6867 26.5077 9.58604 27.0929 9.26814 28.1327C8.95024 29.1725 9.53546 30.2732 10.5753 30.5911L28.1474 35.9634C29.1872 36.2813 30.2878 35.6961 30.6057 34.6563C30.9236 33.6165 30.3384 32.5158 29.2986 32.1979Z" fill="var(--fill-0, #5B351F)"/>
<path id="Vector_7" d="M28.875 13.125C29.5999 13.125 30.1875 12.5374 30.1875 11.8125C30.1875 11.0876 29.5999 10.5 28.875 10.5C28.1501 10.5 27.5625 11.0876 27.5625 11.8125C27.5625 12.5374 28.1501 13.125 28.875 13.125Z" fill="var(--fill-0, #FFE2A3)" fill-opacity="0.85"/>
<path id="Vector_8" d="M13.125 16.0781C13.6687 16.0781 14.1094 15.6374 14.1094 15.0938C14.1094 14.5501 13.6687 14.1094 13.125 14.1094C12.5813 14.1094 12.1406 14.5501 12.1406 15.0938C12.1406 15.6374 12.5813 16.0781 13.125 16.0781Z" fill="var(--fill-0, #FFE2A3)" fill-opacity="0.7"/>
</g>
</svg>
