<svg preserveAspectRatio="none" width="100%" height="100%" overflow="visible" style="display: block;" viewBox="0 0 25 23" fill="none" xmlns="http://www.w3.org/2000/svg">
<g id="asset / mini campfire">
<path id="Vector" d="M12.5 20.4844C17.2462 20.4844 21.0938 17.5882 21.0938 14.0156C21.0938 10.443 17.2462 7.54688 12.5 7.54688C7.7538 7.54688 3.90625 10.443 3.90625 14.0156C3.90625 17.5882 7.7538 20.4844 12.5 20.4844Z" fill="var(--fill-0, #F59B45)" fill-opacity="0.18"/>
<path id="Vector_2" d="M12.5 2.875C15.2344 6.46875 18.75 8.26562 18.75 12.9375C18.75 16.7109 16.0156 19.0469 12.5 19.0469C8.98438 19.0469 6.25 16.7109 6.25 12.9375C6.25 10.4219 7.8125 8.625 9.76562 6.46875C9.76562 8.98438 11.3281 10.0625 12.5 10.7812C13.6719 9.34375 13.6719 6.46875 12.5 2.875Z" fill="var(--fill-0, #F59B45)"/>
<path id="Vector_3" d="M13.2812 7.90625C15.2344 10.4219 16.4062 11.5 16.4062 14.0156C16.4062 16.5312 14.6484 17.9688 12.5 17.9688C10.3516 17.9688 8.59375 16.5312 8.59375 14.0156C8.59375 12.3984 9.76562 11.1406 11.1328 9.70312C11.1328 11.5 12.1094 12.2188 12.8906 12.7578C13.6719 11.6797 14.0625 9.88281 13.2812 7.90625Z" fill="var(--fill-0, #FFCE63)"/>
<path id="Vector_4" d="M12.5 12.2188C13.6719 13.8359 14.4531 14.5547 14.4531 15.8125C14.4531 17.25 13.5937 18.1484 12.5 18.1484C11.4063 18.1484 10.5469 17.25 10.5469 15.8125C10.5469 14.9141 11.3281 14.0156 12.1094 12.9375C12.1094 14.0156 12.4219 14.5547 12.8125 14.9141C13.2812 14.1953 13.2812 13.1172 12.5 12.2188Z" fill="var(--fill-0, #FFF4D6)"/>
<path id="Vector_5" d="M17.5299 14.7367L7.7671 17.3122C7.14497 17.4763 6.78524 18.0734 6.96364 18.6457C7.14203 19.2181 7.79099 19.549 8.41313 19.3849L18.1759 16.8094C18.7981 16.6453 19.1578 16.0483 18.9794 15.4759C18.801 14.9035 18.1521 14.5726 17.5299 14.7367Z" fill="var(--fill-0, #7B4A2A)"/>
<path id="Vector_6" d="M17.4396 17.6322L6.98004 14.6902C6.36112 14.5161 5.70598 14.8366 5.51675 15.406C5.32753 15.9754 5.67587 16.5782 6.2948 16.7522L16.7544 19.6942C17.3733 19.8683 18.0284 19.5478 18.2177 18.9784C18.4069 18.409 18.0586 17.8063 17.4396 17.6322Z" fill="var(--fill-0, #5B351F)"/>
<path id="Vector_7" d="M17.1875 7.1875C17.619 7.1875 17.9688 6.8657 17.9688 6.46875C17.9688 6.0718 17.619 5.75 17.1875 5.75C16.756 5.75 16.4062 6.0718 16.4062 6.46875C16.4062 6.8657 16.756 7.1875 17.1875 7.1875Z" fill="var(--fill-0, #FFE2A3)" fill-opacity="0.85"/>
<path id="Vector_8" d="M7.8125 8.80469C8.1361 8.80469 8.39844 8.56334 8.39844 8.26562C8.39844 7.96791 8.1361 7.72656 7.8125 7.72656C7.4889 7.72656 7.22656 7.96791 7.22656 8.26562C7.22656 8.56334 7.4889 8.80469 7.8125 8.80469Z" fill="var(--fill-0, #FFE2A3)" fill-opacity="0.7"/>
</g>
</svg>
