<svg preserveAspectRatio="none" width="100%" height="100%" overflow="visible" style="display: block;" viewBox="0 0 50 50" fill="none" xmlns="http://www.w3.org/2000/svg">
<g id="Mini campfire / selected vector">
<path id="Vector" d="M25 44.5312C34.4924 44.5312 42.1875 38.2353 42.1875 30.4688C42.1875 22.7022 34.4924 16.4062 25 16.4062C15.5076 16.4062 7.8125 22.7022 7.8125 30.4688C7.8125 38.2353 15.5076 44.5312 25 44.5312Z" fill="var(--fill-0, #F59B45)" fill-opacity="0.18"/>
<path id="Vector_2" d="M25 6.25C30.4688 14.0625 37.5 17.9688 37.5 28.125C37.5 36.3281 32.0312 41.4062 25 41.4062C17.9688 41.4062 12.5 36.3281 12.5 28.125C12.5 22.6562 15.625 18.75 19.5312 14.0625C19.5312 19.5312 22.6562 21.875 25 23.4375C27.3438 20.3125 27.3438 14.0625 25 6.25Z" fill="var(--fill-0, #F59B45)"/>
<path id="Vector_3" d="M26.5625 17.1875C30.4688 22.6562 32.8125 25 32.8125 30.4688C32.8125 35.9375 29.2969 39.0625 25 39.0625C20.7031 39.0625 17.1875 35.9375 17.1875 30.4688C17.1875 26.9531 19.5312 24.2188 22.2656 21.0938C22.2656 25 24.2188 26.5625 25.7812 27.7344C27.3438 25.3906 28.125 21.4844 26.5625 17.1875Z" fill="var(--fill-0, #FFCE63)"/>
<path id="Vector_4" d="M25 26.5625C27.3438 30.0781 28.9062 31.6406 28.9062 34.375C28.9062 37.5 27.1875 39.4531 25 39.4531C22.8125 39.4531 21.0938 37.5 21.0938 34.375C21.0938 32.4219 22.6562 30.4688 24.2188 28.125C24.2188 30.4688 24.8437 31.6406 25.625 32.4219C26.5625 30.8594 26.5625 28.5156 25 26.5625Z" fill="var(--fill-0, #FFF4D6)"/>
<path id="Vector_5" d="M35.0598 32.0363L15.5342 37.6352C14.2899 37.992 13.5705 39.2899 13.9273 40.5342C14.2841 41.7785 15.582 42.4979 16.8263 42.1411L36.3519 36.5423C37.5962 36.1855 38.3156 34.8875 37.9588 33.6433C37.602 32.399 36.3041 31.6796 35.0598 32.0363Z" fill="var(--fill-0, #7B4A2A)"/>
<path id="Vector_6" d="M34.8793 38.3309L13.9601 31.9352C12.7222 31.5568 11.412 32.2535 11.0335 33.4913C10.6551 34.7292 11.3517 36.0395 12.5896 36.4179L33.5088 42.8136C34.7466 43.192 36.0569 42.4953 36.4353 41.2575C36.8138 40.0196 36.1171 38.7093 34.8793 38.3309Z" fill="var(--fill-0, #5B351F)"/>
<path id="Vector_7" d="M34.375 15.625C35.2379 15.625 35.9375 14.9254 35.9375 14.0625C35.9375 13.1996 35.2379 12.5 34.375 12.5C33.5121 12.5 32.8125 13.1996 32.8125 14.0625C32.8125 14.9254 33.5121 15.625 34.375 15.625Z" fill="var(--fill-0, #FFE2A3)" fill-opacity="0.85"/>
<path id="Vector_8" d="M15.625 19.1406C16.2722 19.1406 16.7969 18.616 16.7969 17.9688C16.7969 17.3215 16.2722 16.7969 15.625 16.7969C14.9778 16.7969 14.4531 17.3215 14.4531 17.9688C14.4531 18.616 14.9778 19.1406 15.625 19.1406Z" fill="var(--fill-0, #FFE2A3)" fill-opacity="0.7"/>
</g>
</svg>
