<svg preserveAspectRatio="none" width="100%" height="100%" overflow="visible" style="display: block;" viewBox="0 0 30 30" fill="none" xmlns="http://www.w3.org/2000/svg">
<g id="asset / mini campfire">
<path id="Vector" d="M15 26.7188C20.6954 26.7188 25.3125 22.9412 25.3125 18.2812C25.3125 13.6213 20.6954 9.84375 15 9.84375C9.30456 9.84375 4.6875 13.6213 4.6875 18.2812C4.6875 22.9412 9.30456 26.7188 15 26.7188Z" fill="var(--fill-0, #F59B45)" fill-opacity="0.18"/>
<path id="Vector_2" d="M15 3.75C18.2812 8.4375 22.5 10.7812 22.5 16.875C22.5 21.7969 19.2188 24.8438 15 24.8438C10.7812 24.8438 7.5 21.7969 7.5 16.875C7.5 13.5938 9.375 11.25 11.7188 8.4375C11.7188 11.7188 13.5938 13.125 15 14.0625C16.4062 12.1875 16.4062 8.4375 15 3.75Z" fill="var(--fill-0, #F59B45)"/>
<path id="Vector_3" d="M15.9375 10.3125C18.2812 13.5938 19.6875 15 19.6875 18.2812C19.6875 21.5625 17.5781 23.4375 15 23.4375C12.4219 23.4375 10.3125 21.5625 10.3125 18.2812C10.3125 16.1719 11.7188 14.5312 13.3594 12.6562C13.3594 15 14.5312 15.9375 15.4688 16.6406C16.4062 15.2344 16.875 12.8906 15.9375 10.3125Z" fill="var(--fill-0, #FFCE63)"/>
<path id="Vector_4" d="M15 15.9375C16.4062 18.0469 17.3438 18.9844 17.3438 20.625C17.3438 22.5 16.3125 23.6719 15 23.6719C13.6875 23.6719 12.6562 22.5 12.6562 20.625C12.6562 19.4531 13.5938 18.2812 14.5312 16.875C14.5312 18.2812 14.9062 18.9844 15.375 19.4531C15.9375 18.5156 15.9375 17.1094 15 15.9375Z" fill="var(--fill-0, #FFF4D6)"/>
<path id="Vector_5" d="M21.0359 19.2218L9.32052 22.5811C8.57396 22.7952 8.14229 23.574 8.35637 24.3205C8.57044 25.0671 9.34919 25.4988 10.0958 25.2847L21.8111 21.9254C22.5577 21.7113 22.9894 20.9325 22.7753 20.186C22.5612 19.4394 21.7825 19.0077 21.0359 19.2218Z" fill="var(--fill-0, #7B4A2A)"/>
<path id="Vector_6" d="M20.9276 22.9985L8.37605 19.1611C7.63334 18.9341 6.84717 19.3521 6.6201 20.0948C6.39303 20.8375 6.81104 21.6237 7.55376 21.8508L20.1053 25.6881C20.848 25.9152 21.6341 25.4972 21.8612 24.7545C22.0883 24.0118 21.6703 23.2256 20.9276 22.9985Z" fill="var(--fill-0, #5B351F)"/>
<path id="Vector_7" d="M20.625 9.375C21.1428 9.375 21.5625 8.95527 21.5625 8.4375C21.5625 7.91973 21.1428 7.5 20.625 7.5C20.1072 7.5 19.6875 7.91973 19.6875 8.4375C19.6875 8.95527 20.1072 9.375 20.625 9.375Z" fill="var(--fill-0, #FFE2A3)" fill-opacity="0.85"/>
<path id="Vector_8" d="M9.375 11.4844C9.76333 11.4844 10.0781 11.1696 10.0781 10.7812C10.0781 10.3929 9.76333 10.0781 9.375 10.0781C8.98667 10.0781 8.67188 10.3929 8.67188 10.7812C8.67188 11.1696 8.98667 11.4844 9.375 11.4844Z" fill="var(--fill-0, #FFE2A3)" fill-opacity="0.7"/>
</g>
</svg>
