<svg xmlns="http://www.w3.org/2000/svg" viewBox="0 0 24 24" aria-hidden="true">
  <path fill="#4285F4" d="M23.5 12.3c0-.8-.1-1.6-.2-2.3H12v4.4h6.5c-.3 1.4-1.1 2.7-2.4 3.5v2.9h3.8c2.2-2 3.6-5 3.6-8.5z"/>
  <path fill="#34A853" d="M12 24c3.2 0 5.9-1.1 7.9-2.9l-3.8-2.9c-1 .7-2.4 1.1-4.1 1.1-3.1 0-5.7-2.1-6.6-4.9H1.5v3C3.4 21.3 7.4 24 12 24z"/>
  <path fill="#FBBC05" d="M5.4 14.4c-.2-.7-.4-1.5-.4-2.4s.1-1.6.4-2.4v-3H1.5C.5 8.2 0 10 0 12s.5 3.8 1.5 5.4l3.9-3z"/>
  <path fill="#EA4335" d="M12 4.7c1.7 0 3.3.6 4.5 1.8l3.3-3.3C17.9 1.2 15.2 0 12 0 7.4 0 3.4 2.7 1.5 6.6l3.9 3C6.3 6.8 8.9 4.7 12 4.7z"/>
</svg>
